<?xml version="1.0" standalone="no"?>
<!DOCTYPE svg PUBLIC "-//W3C//DTD SVG 20010904//EN"
 "http://www.w3.org/TR/2001/REC-SVG-20010904/DTD/svg10.dtd">
<svg version="1.0" xmlns="http://www.w3.org/2000/svg"
 width="244.000000pt" height="122.000000pt" viewBox="0 0 244.000000 122.000000"
 preserveAspectRatio="xMidYMid meet">

<g transform="translate(0.000000,122.000000) scale(0.100000,-0.100000)"
fill="blue" stroke="none" color="blue">
<path d="M318 1011 c-111 -36 -169 -89 -222 -201 -30 -63 -31 -69 -31 -205 0
-131 2 -144 27 -197 35 -74 95 -138 160 -170 158 -77 382 -56 486 47 49 49 56
91 20 125 -32 29 -64 25 -111 -15 -105 -90 -287 -86 -382 10 -52 52 -65 92
-65 205 0 99 20 154 78 213 37 38 107 67 164 67 35 0 124 -33 149 -56 10 -9
23 -33 30 -53 6 -20 18 -44 27 -53 23 -27 67 -23 91 8 18 23 21 41 21 124 0
83 -3 101 -21 124 -23 29 -54 33 -85 11 -19 -13 -27 -12 -75 6 -77 30 -189 34
-261 10z"/>
<path d="M1112 1014 c-64 -20 -138 -83 -163 -139 -25 -53 -24 -135 0 -183 43
-83 103 -116 280 -156 123 -28 157 -44 171 -82 14 -35 -5 -67 -54 -95 -33 -19
-55 -24 -116 -24 -64 0 -83 4 -126 28 -40 22 -55 38 -67 68 -18 45 -53 64 -91
49 -37 -14 -46 -40 -46 -135 0 -78 2 -88 25 -110 28 -28 51 -31 81 -10 19 13
27 12 75 -7 72 -29 220 -31 296 -5 78 27 139 87 159 153 25 88 6 160 -58 220
-53 51 -77 60 -238 95 -106 24 -144 40 -160 68 -41 78 68 160 182 136 63 -14
89 -34 114 -91 29 -65 58 -83 100 -63 33 16 42 42 43 125 1 87 -8 123 -36 141
-21 14 -30 14 -57 5 -27 -10 -40 -9 -72 4 -56 23 -177 27 -242 8z"/>
<path d="M1735 998 c-28 -16 -35 -28 -35 -65 0 -39 30 -63 77 -63 l33 0 0
-259 0 -258 -42 -6 c-23 -3 -48 -14 -55 -23 -17 -23 -16 -65 1 -90 13 -17 30
-19 202 -22 203 -4 240 3 250 44 10 38 -4 74 -32 84 -14 6 -61 10 -105 10
l-79 0 0 64 0 63 109 5 c121 6 187 28 253 87 102 89 109 252 16 352 -70 75
-130 89 -378 89 -127 -1 -202 -5 -215 -12z m426 -138 c52 -15 91 -60 91 -105
0 -83 -70 -127 -209 -133 l-93 -4 0 126 0 126 88 0 c48 0 103 -5 123 -10z"/>
</g>
</svg>
