<?xml version="1.0" standalone="no"?>
<!DOCTYPE svg PUBLIC "-//W3C//DTD SVG 20010904//EN"
 "http://www.w3.org/TR/2001/REC-SVG-20010904/DTD/svg10.dtd">
<svg version="1.0" xmlns="http://www.w3.org/2000/svg"
 width="247.000000pt" height="268.000000pt" viewBox="0 0 247.000000 268.000000"
 preserveAspectRatio="xMidYMid meet">
<metadata>
Created by potrace 1.16, written by Peter Selinger 2001-2019
</metadata>
<g transform="translate(0.000000,268.000000) scale(0.100000,-0.100000)"
fill="#000000" stroke="none">
<path d="M1320 1773 l-865 -868 868 865 c477 476 867 866 867 867 0 2 -1 3 -3
3 -1 0 -391 -390 -867 -867z"/>
<path d="M1622 867 l-562 -562 153 -153 152 -152 415 0 415 0 -358 358 -357
357 357 358 c197 196 356 357 353 357 -3 0 -258 -253 -568 -563z"/>
</g>
</svg>
